<?xml version="1.0" standalone="no"?>
<!DOCTYPE svg PUBLIC "-//W3C//DTD SVG 1.1//EN" "http://www.w3.org/Graphics/SVG/1.1/DTD/svg11.dtd">
<!--Generator: Xara Designer (www.xara.com), SVG filter version: 6.6.0.1-->
<svg fill="none" fill-rule="evenodd" stroke="black" stroke-width="0.501" stroke-linejoin="bevel" stroke-miterlimit="10" font-family="Times New Roman" font-size="16" style="font-variant-ligatures:none" xmlns:xlink="http://www.w3.org/1999/xlink" xmlns="http://www.w3.org/2000/svg" version="1.1" overflow="visible" width="268.119pt" height="97.898pt" viewBox="67.462 -360.307 268.119 97.898">
 <defs>
	</defs>
 <g id="Your Design Here" transform="scale(1 -1)">
  <g id="Group" stroke="none" fill="#7f02fe">
   <g id="Group_1" fill-rule="nonzero" stroke-linejoin="round" stroke-linecap="round" stroke-width="4.498">
    <g id="Group_2">
     <g id="Group_3">
      <path d="M 155.031,316.323 L 155.031,339.444 L 165.039,339.444 C 167.109,339.444 168.892,339.108 170.39,338.437 C 171.887,337.765 173.043,336.802 173.858,335.547 C 174.673,334.292 175.08,332.794 175.08,331.055 C 175.08,329.337 174.673,327.851 173.858,326.595 C 173.043,325.34 171.887,324.377 170.39,323.705 C 168.892,323.034 167.109,322.698 165.039,322.698 L 158.003,322.698 L 160.381,325.109 L 160.381,316.323 L 155.031,316.323 Z M 160.381,324.515 L 158.003,327.058 L 164.741,327.058 C 166.393,327.058 167.626,327.41 168.441,328.115 C 169.256,328.819 169.663,329.799 169.663,331.055 C 169.663,332.332 169.256,333.323 168.441,334.027 C 167.626,334.732 166.393,335.084 164.741,335.084 L 158.003,335.084 L 160.381,337.628 L 160.381,324.515 Z" marker-start="none" marker-end="none"/>
      <path d="M 178.514,316.323 L 178.514,334.093 L 183.436,334.093 L 183.436,329.073 L 182.742,330.526 C 183.271,331.781 184.118,332.734 185.285,333.383 C 186.452,334.033 187.873,334.358 189.546,334.358 L 189.546,329.601 C 189.326,329.623 189.128,329.64 188.952,329.651 C 188.776,329.662 188.588,329.667 188.39,329.667 C 186.981,329.667 185.841,329.265 184.972,328.462 C 184.102,327.658 183.667,326.408 183.667,324.713 L 183.667,316.323 L 178.514,316.323 Z" marker-start="none" marker-end="none"/>
      <path d="M 200.915,316.059 C 199.021,316.059 197.342,316.455 195.878,317.248 C 194.413,318.041 193.257,319.125 192.41,320.501 C 191.562,321.878 191.138,323.447 191.138,325.208 C 191.138,326.992 191.562,328.572 192.41,329.948 C 193.257,331.324 194.413,332.403 195.878,333.185 C 197.342,333.967 199.021,334.358 200.915,334.358 C 202.787,334.358 204.46,333.967 205.936,333.185 C 207.411,332.403 208.567,331.33 209.404,329.965 C 210.241,328.599 210.659,327.014 210.659,325.208 C 210.659,323.447 210.241,321.878 209.404,320.501 C 208.567,319.125 207.411,318.041 205.936,317.248 C 204.46,316.455 202.787,316.059 200.915,316.059 Z M 200.915,320.287 C 201.774,320.287 202.544,320.485 203.227,320.881 C 203.91,321.278 204.449,321.845 204.846,322.582 C 205.242,323.32 205.44,324.195 205.44,325.208 C 205.44,326.243 205.242,327.124 204.846,327.851 C 204.449,328.577 203.91,329.139 203.227,329.535 C 202.544,329.932 201.774,330.13 200.915,330.13 C 200.056,330.13 199.285,329.932 198.603,329.535 C 197.92,329.139 197.375,328.577 196.968,327.851 C 196.56,327.124 196.357,326.243 196.357,325.208 C 196.357,324.195 196.56,323.32 196.968,322.582 C 197.375,321.845 197.92,321.278 198.603,320.881 C 199.285,320.485 200.056,320.287 200.915,320.287 Z" marker-start="none" marker-end="none"/>
      <path d="M 217.656,316.323 L 211.248,334.093 L 216.103,334.093 L 221.421,318.8 L 219.109,318.8 L 224.658,334.093 L 229.018,334.093 L 234.402,318.8 L 232.09,318.8 L 237.573,334.093 L 242.131,334.093 L 235.691,316.323 L 230.703,316.323 L 225.98,329.436 L 227.499,329.436 L 222.61,316.323 L 217.656,316.323 Z" marker-start="none" marker-end="none"/>
      <path d="M 252.868,316.059 C 250.842,316.059 249.064,316.455 247.534,317.248 C 246.003,318.041 244.82,319.125 243.983,320.501 C 243.146,321.878 242.728,323.447 242.728,325.208 C 242.728,326.992 243.141,328.572 243.967,329.948 C 244.792,331.324 245.921,332.403 247.352,333.185 C 248.784,333.967 250.402,334.358 252.208,334.358 C 253.947,334.358 255.516,333.989 256.915,333.251 C 258.313,332.513 259.419,331.456 260.234,330.08 C 261.049,328.704 261.456,327.058 261.456,325.142 C 261.456,324.944 261.445,324.718 261.423,324.465 C 261.401,324.212 261.379,323.975 261.357,323.755 L 246.923,323.755 L 246.923,326.761 L 258.649,326.761 L 256.667,325.869 C 256.667,326.794 256.48,327.597 256.105,328.28 C 255.731,328.963 255.213,329.497 254.553,329.882 C 253.892,330.267 253.122,330.46 252.241,330.46 C 251.36,330.46 250.584,330.267 249.912,329.882 C 249.24,329.497 248.717,328.957 248.343,328.263 C 247.969,327.57 247.782,326.75 247.782,325.803 L 247.782,325.01 C 247.782,324.041 247.996,323.188 248.426,322.45 C 248.855,321.712 249.461,321.151 250.242,320.766 C 251.024,320.38 251.943,320.188 253,320.188 C 253.947,320.188 254.779,320.331 255.494,320.617 C 256.21,320.903 256.865,321.333 257.46,321.905 L 260.201,318.932 C 259.386,318.008 258.362,317.297 257.129,316.802 C 255.896,316.306 254.476,316.059 252.868,316.059 Z" marker-start="none" marker-end="none"/>
      <path d="M 275.292,316.323 L 275.292,319.791 L 274.962,320.551 L 274.962,326.761 C 274.962,327.862 274.626,328.72 273.954,329.337 C 273.283,329.954 272.253,330.262 270.866,330.262 C 269.919,330.262 268.989,330.113 268.075,329.816 C 267.161,329.519 266.385,329.117 265.746,328.61 L 263.897,332.211 C 264.866,332.893 266.033,333.422 267.398,333.796 C 268.763,334.17 270.15,334.358 271.56,334.358 C 274.268,334.358 276.371,333.719 277.869,332.442 C 279.366,331.165 280.115,329.172 280.115,326.463 L 280.115,316.323 L 275.292,316.323 Z M 269.875,316.059 C 268.488,316.059 267.299,316.295 266.308,316.769 C 265.317,317.242 264.557,317.886 264.029,318.701 C 263.5,319.516 263.236,320.43 263.236,321.443 C 263.236,322.5 263.495,323.425 264.012,324.217 C 264.53,325.01 265.35,325.632 266.473,326.083 C 267.596,326.535 269.06,326.761 270.866,326.761 L 275.589,326.761 L 275.589,323.755 L 271.428,323.755 C 270.217,323.755 269.385,323.557 268.934,323.16 C 268.482,322.764 268.257,322.268 268.257,321.674 C 268.257,321.013 268.515,320.49 269.033,320.105 C 269.55,319.72 270.261,319.527 271.163,319.527 C 272.022,319.527 272.793,319.731 273.476,320.138 C 274.158,320.545 274.654,321.145 274.962,321.938 L 275.755,319.56 C 275.38,318.415 274.698,317.545 273.707,316.951 C 272.716,316.356 271.439,316.059 269.875,316.059 Z" marker-start="none" marker-end="none"/>
      <path d="M 289.272,316.323 L 281.807,334.093 L 287.125,334.093 L 293.334,318.8 L 290.692,318.8 L 297.133,334.093 L 302.087,334.093 L 294.59,316.323 L 289.272,316.323 Z" marker-start="none" marker-end="none"/>
      <path d="M 312.531,316.059 C 310.505,316.059 308.727,316.455 307.197,317.248 C 305.666,318.041 304.483,319.125 303.646,320.501 C 302.809,321.878 302.391,323.447 302.391,325.208 C 302.391,326.992 302.804,328.572 303.63,329.948 C 304.455,331.324 305.584,332.403 307.015,333.185 C 308.447,333.967 310.065,334.358 311.871,334.358 C 313.61,334.358 315.179,333.989 316.578,333.251 C 317.976,332.513 319.082,331.456 319.897,330.08 C 320.712,328.704 321.119,327.058 321.119,325.142 C 321.119,324.944 321.108,324.718 321.086,324.465 C 321.064,324.212 321.042,323.975 321.02,323.755 L 306.586,323.755 L 306.586,326.761 L 318.312,326.761 L 316.33,325.869 C 316.33,326.794 316.143,327.597 315.768,328.28 C 315.394,328.963 314.876,329.497 314.216,329.882 C 313.555,330.267 312.785,330.46 311.904,330.46 C 311.023,330.46 310.247,330.267 309.575,329.882 C 308.903,329.497 308.38,328.957 308.006,328.263 C 307.632,327.57 307.445,326.75 307.445,325.803 L 307.445,325.01 C 307.445,324.041 307.659,323.188 308.089,322.45 C 308.518,321.712 309.124,321.151 309.905,320.766 C 310.687,320.38 311.606,320.188 312.663,320.188 C 313.61,320.188 314.442,320.331 315.157,320.617 C 315.873,320.903 316.528,321.333 317.123,321.905 L 319.864,318.932 C 319.049,318.008 318.025,317.297 316.792,316.802 C 315.559,316.306 314.139,316.059 312.531,316.059 Z" marker-start="none" marker-end="none"/>
      <path d="M 324.549,316.323 L 324.549,334.093 L 329.471,334.093 L 329.471,329.073 L 328.777,330.526 C 329.306,331.781 330.153,332.734 331.32,333.383 C 332.487,334.033 333.908,334.358 335.581,334.358 L 335.581,329.601 C 335.361,329.623 335.163,329.64 334.987,329.651 C 334.811,329.662 334.623,329.667 334.425,329.667 C 333.016,329.667 331.876,329.265 331.007,328.462 C 330.137,327.658 329.702,326.408 329.702,324.713 L 329.702,316.323 L 324.549,316.323 Z" marker-start="none" marker-end="none"/>
     </g>
    </g>
    <g id="Group_4">
     <g id="Group_5">
      <path d="M 155.03,293.714 L 161.21,307.233 L 162.62,307.233 L 168.8,293.714 L 167.294,293.714 L 161.616,306.403 L 162.195,306.403 L 156.517,293.714 L 155.03,293.714 Z M 157.464,297.326 L 157.888,298.485 L 165.749,298.485 L 166.174,297.326 L 157.464,297.326 Z" marker-start="none" marker-end="none"/>
      <path d="M 179.666,293.598 C 178.649,293.598 177.709,293.769 176.847,294.11 C 175.984,294.451 175.237,294.931 174.606,295.549 C 173.975,296.167 173.483,296.894 173.129,297.731 C 172.775,298.568 172.598,299.482 172.598,300.474 C 172.598,301.465 172.775,302.379 173.129,303.216 C 173.483,304.053 173.979,304.781 174.616,305.399 C 175.253,306.017 176.003,306.496 176.866,306.837 C 177.729,307.179 178.668,307.349 179.686,307.349 C 180.664,307.349 181.585,307.185 182.447,306.857 C 183.31,306.528 184.037,306.036 184.63,305.379 L 183.722,304.472 C 183.168,305.038 182.557,305.447 181.887,305.698 C 181.218,305.949 180.497,306.075 179.724,306.075 C 178.913,306.075 178.16,305.936 177.465,305.659 C 176.769,305.383 176.164,304.99 175.649,304.481 C 175.134,303.973 174.732,303.38 174.442,302.704 C 174.152,302.029 174.008,301.285 174.008,300.474 C 174.008,299.663 174.152,298.919 174.442,298.243 C 174.732,297.567 175.134,296.975 175.649,296.466 C 176.164,295.958 176.769,295.565 177.465,295.288 C 178.16,295.011 178.913,294.873 179.724,294.873 C 180.497,294.873 181.218,295.002 181.887,295.259 C 182.557,295.517 183.168,295.929 183.722,296.495 L 184.63,295.588 C 184.037,294.931 183.31,294.435 182.447,294.101 C 181.585,293.766 180.658,293.598 179.666,293.598 Z" marker-start="none" marker-end="none"/>
      <path d="M 188.127,293.714 L 194.307,307.233 L 195.717,307.233 L 201.897,293.714 L 200.391,293.714 L 194.713,306.403 L 195.292,306.403 L 189.614,293.714 L 188.127,293.714 Z M 190.561,297.326 L 190.985,298.485 L 198.846,298.485 L 199.271,297.326 L 190.561,297.326 Z" marker-start="none" marker-end="none"/>
      <path d="M 207.084,293.714 L 207.084,307.233 L 212.588,307.233 C 214.03,307.233 215.295,306.947 216.383,306.374 C 217.471,305.801 218.318,305.006 218.923,303.989 C 219.528,302.972 219.831,301.8 219.831,300.474 C 219.831,299.148 219.528,297.976 218.923,296.959 C 218.318,295.942 217.471,295.147 216.383,294.574 C 215.295,294.001 214.03,293.714 212.588,293.714 L 207.084,293.714 Z M 208.513,294.95 L 212.511,294.95 C 213.709,294.95 214.748,295.185 215.63,295.655 C 216.512,296.125 217.198,296.775 217.687,297.606 C 218.176,298.436 218.421,299.392 218.421,300.474 C 218.421,301.568 218.176,302.527 217.687,303.351 C 217.198,304.175 216.512,304.822 215.63,305.292 C 214.748,305.762 213.709,305.997 212.511,305.997 L 208.513,305.997 L 208.513,294.95 Z" marker-start="none" marker-end="none"/>
      <path d="M 227.266,301.188 L 234.412,301.188 L 234.412,299.972 L 227.266,299.972 L 227.266,301.188 Z M 227.42,294.95 L 235.551,294.95 L 235.551,293.714 L 225.991,293.714 L 225.991,307.233 L 235.261,307.233 L 235.261,305.997 L 227.42,305.997 L 227.42,294.95 Z" marker-start="none" marker-end="none"/>
      <path d="M 241.861,293.714 L 241.861,307.233 L 243.039,307.233 L 249.219,296.688 L 248.601,296.688 L 254.724,307.233 L 255.902,307.233 L 255.902,293.714 L 254.53,293.714 L 254.53,305.09 L 254.859,305.09 L 249.219,295.433 L 248.543,295.433 L 242.865,305.09 L 243.232,305.09 L 243.232,293.714 L 241.861,293.714 Z" marker-start="none" marker-end="none"/>
      <path d="M 266.483,293.714 L 266.483,298.736 L 266.812,297.847 L 261.076,307.233 L 262.602,307.233 L 267.642,298.987 L 266.831,298.987 L 271.872,307.233 L 273.301,307.233 L 267.565,297.847 L 267.893,298.736 L 267.893,293.714 L 266.483,293.714 Z" marker-start="none" marker-end="none"/>
     </g>
    </g>
   </g>
   <g id="Group_6" stroke-linejoin="miter">
    <path d="M 103.252,277.653 L 103.252,286.313 L 131.545,302.647 L 131.545,335.311 L 103.252,351.646 L 74.962,335.313 L 74.962,315.586 L 74.962,315.586 L 74.962,293.987 L 67.462,298.316 L 67.464,339.644 L 103.254,360.307 L 139.045,339.642 L 139.045,298.316 L 103.252,277.653 Z" marker-start="none" marker-end="none"/>
    <path d="M 118.28,326.146 L 103.252,334.823 L 88.226,326.148 L 88.226,300.138 L 80.727,304.468 L 80.729,330.479 L 103.254,343.482 L 125.782,330.479 L 118.28,326.146 Z" marker-start="none" marker-end="none"/>
    <path d="M 80.728,311.387 L 80.728,274.398 L 88.227,274.398 L 88.227,311.387 L 80.728,311.387 Z" marker-start="none" marker-end="none"/>
    <path d="M 67.463,262.409 L 67.463,271.069 L 80.728,278.726 L 88.227,274.398 L 67.463,262.409 Z" marker-start="none" marker-end="none"/>
    <path d="M 97.886,287.355 C 100.848,290.317 105.658,290.317 108.62,287.355 C 111.582,284.393 111.582,279.583 108.62,276.621 C 105.658,273.659 100.848,273.659 97.886,276.621 C 94.924,279.583 94.924,284.393 97.886,287.355 Z" marker-start="none" marker-end="none"/>
    <path d="M 115.047,333.351 C 118.009,336.313 122.819,336.313 125.781,333.351 C 128.743,330.389 128.743,325.579 125.781,322.617 C 122.819,319.655 118.009,319.655 115.047,322.617 C 112.085,325.579 112.085,330.389 115.047,333.351 Z" marker-start="none" marker-end="none"/>
    <path d="M 67.462,311.388 L 67.462,270.567 L 74.961,270.567 L 74.961,311.388 L 67.462,311.388 Z" marker-start="none" marker-end="none"/>
   </g>
  </g>
 </g>
</svg>
